G04 Layer: TopSilkscreenLayer*
G04 EasyEDA v6.5.44, 2024-08-04 20:28:30*
G04 8295df91b2f84a2d9169b475f636a574,b0d0efe6ac584fe99c24f131b36d675a,10*
G04 Gerber Generator version 0.2*
G04 Scale: 100 percent, Rotated: No, Reflected: No *
G04 Dimensions in millimeters *
G04 leading zeros omitted , absolute positions ,4 integer and 5 decimal *
%FSLAX45Y45*%
%MOMM*%

%ADD10C,0.1524*%
%ADD11C,0.2540*%

%LPD*%
D10*
X1257300Y3989781D02*
G01*
X1257300Y4098747D01*
X1257300Y4098747D02*
G01*
X1195070Y4098747D01*
X1160779Y3989781D02*
G01*
X1160779Y4098747D01*
X1160779Y3989781D02*
G01*
X1093215Y3989781D01*
X1160779Y4041597D02*
G01*
X1119123Y4041597D01*
X1160779Y4098747D02*
G01*
X1093215Y4098747D01*
X1058926Y3989781D02*
G01*
X1058926Y4098747D01*
X1058926Y3989781D02*
G01*
X1022350Y3989781D01*
X1006855Y3994861D01*
X996442Y4005275D01*
X991362Y4015689D01*
X986028Y4031437D01*
X986028Y4057345D01*
X991362Y4072839D01*
X996442Y4083253D01*
X1006855Y4093667D01*
X1022350Y4098747D01*
X1058926Y4098747D01*
X946657Y4015689D02*
G01*
X946657Y4010609D01*
X941323Y4000195D01*
X936244Y3994861D01*
X925829Y3989781D01*
X905002Y3989781D01*
X894587Y3994861D01*
X889507Y4000195D01*
X884173Y4010609D01*
X884173Y4021023D01*
X889507Y4031437D01*
X899921Y4046931D01*
X951737Y4098747D01*
X879094Y4098747D01*
X2578100Y4380484D02*
G01*
X2578100Y4489450D01*
X2578100Y4380484D02*
G01*
X2531363Y4380484D01*
X2515870Y4385563D01*
X2510536Y4390897D01*
X2505456Y4401312D01*
X2505456Y4411726D01*
X2510536Y4422139D01*
X2515870Y4427220D01*
X2531363Y4432300D01*
X2578100Y4432300D01*
X2541777Y4432300D02*
G01*
X2505456Y4489450D01*
X2471165Y4401312D02*
G01*
X2460752Y4395978D01*
X2445004Y4380484D01*
X2445004Y4489450D01*
X1462278Y3527044D02*
G01*
X1451863Y3516629D01*
X1446784Y3501136D01*
X1446784Y3480307D01*
X1451863Y3464813D01*
X1462278Y3454400D01*
X1472692Y3454400D01*
X1483105Y3459479D01*
X1488439Y3464813D01*
X1493520Y3475228D01*
X1503934Y3506470D01*
X1509013Y3516629D01*
X1514347Y3521963D01*
X1524762Y3527044D01*
X1540255Y3527044D01*
X1550670Y3516629D01*
X1555750Y3501136D01*
X1555750Y3480307D01*
X1550670Y3464813D01*
X1540255Y3454400D01*
X1446784Y3561334D02*
G01*
X1555750Y3587495D01*
X1446784Y3613404D02*
G01*
X1555750Y3587495D01*
X1446784Y3613404D02*
G01*
X1555750Y3639312D01*
X1446784Y3665220D02*
G01*
X1555750Y3639312D01*
X1467612Y3699510D02*
G01*
X1462278Y3709923D01*
X1446784Y3725671D01*
X1555750Y3725671D01*
D11*
X1361899Y4591796D02*
G01*
X1101900Y4591796D01*
X2893059Y4767579D02*
G01*
X2893059Y4528820D01*
X2893059Y4528820D02*
G01*
X2263140Y4528820D01*
X2263140Y4528820D02*
G01*
X2263140Y4767579D01*
X2263140Y4767579D02*
G01*
X2893059Y4767579D01*
X3555984Y3577391D02*
G01*
X3086100Y3533391D01*
X3556000Y3327400D02*
G01*
X3086100Y3359353D01*
X2639098Y3201926D02*
G01*
X3086100Y3201926D01*
X3086100Y3708400D01*
X2639098Y3708400D01*
X1625600Y3624071D02*
G01*
X1625600Y3284728D01*
X2639098Y3854399D02*
G01*
X1625600Y3854399D01*
X1625600Y3792728D01*
X2639098Y3054400D02*
G01*
X1612900Y3054400D01*
X1612900Y3127382D01*
X2639098Y3854399D02*
G01*
X2639098Y3054400D01*
G75*
G01*
X1093724Y4588967D02*
G03*
X1370076Y4588967I138176J-220244D01*
G75*
G01*
X3556000Y3327400D02*
G03*
X3555985Y3577392I968J124996D01*
M02*
